<?xml version="1.0" encoding="UTF-8" standalone="no"?>
<svg
   width="16"
   height="16"
   version="1.1"
   id="svg1"
   sodipodi:docname="CardboardVRCamera3D.svg"
   xml:space="preserve"
   inkscape:version="1.3 (0e150ed6c4, 2023-07-21)"
   xmlns:inkscape="http://www.inkscape.org/namespaces/inkscape"
   xmlns:sodipodi="http://sodipodi.sourceforge.net/DTD/sodipodi-0.dtd"
   xmlns="http://www.w3.org/2000/svg"
   xmlns:svg="http://www.w3.org/2000/svg"><defs
     id="defs1" /><sodipodi:namedview
     id="namedview1"
     pagecolor="#505050"
     bordercolor="#eeeeee"
     borderopacity="1"
     inkscape:showpageshadow="0"
     inkscape:pageopacity="0"
     inkscape:pagecheckerboard="0"
     inkscape:deskcolor="#505050"
     inkscape:zoom="13.015625"
     inkscape:cx="6.4537815"
     inkscape:cy="13.253301"
     inkscape:window-width="1920"
     inkscape:window-height="1009"
     inkscape:window-x="1912"
     inkscape:window-y="-8"
     inkscape:window-maximized="1"
     inkscape:current-layer="svg1" /><path
     id="path1"
     d="m 11.885054,5.1132812 v 1.7578126 c 0,0.3492489 -0.282776,0.6043007 -0.630859,0.6328124 -1.168974,0.095751 -2.5363998,0.087915 -3.6914066,0.070313 C 6.1605551,6.2838145 3.9262399,6.6107661 2.9525283,8.2488331 1.9788167,9.8869001 2.7592068,12.005875 4.5627884,12.621094 v 2.177734 c 0,0.552285 0.4477153,1 1,1 h 5.9999996 c 0.552285,0 1,-0.447715 1,-1 v -1 l 3,2 V 9.7988281 l -3,1.9999999 V 10.027344 C 14.133513,8.6088369 13.78111,6.0536593 11.885054,5.1132812 Z"
     style="fill:#fc7f7f;fill-opacity:1"
     sodipodi:nodetypes="csscscsssscccccc" /><path
     d="m 10.835994,0.43476504 h -9.82008 c -0.30125155,0 -0.54556015,0.2443092 -0.54556015,0.5455606 V 6.4359243 c 0,0.301251 0.2443086,0.545561 0.54556015,0.545561 h 2.7315506 c 0.4294579,0 0.8188513,-0.251811 0.994965,-0.643421 l 0.472932,-1.050884 c 0.134515,-0.299036 0.409682,-0.487935 0.7105922,-0.487935 0.30091,0 0.576078,0.188899 0.710592,0.487935 l 0.472933,1.050884 c 0.176113,0.39161 0.565678,0.643421 0.994964,0.643421 h 2.7315512 c 0.301251,0 0.54556,-0.24431 0.54556,-0.545561 V 0.98032564 c 0,-0.3012514 -0.244309,-0.5455606 -0.54556,-0.5455606 z M 3.1981539,4.5264653 c -0.6026733,0 -1.09112,-0.488448 -1.09112,-1.09112 0,-0.602674 0.4884467,-1.09112 1.09112,-1.09112 0.6026733,0 1.0911199,0.488446 1.0911199,1.09112 0,0.602672 -0.4884466,1.09112 -1.0911199,1.09112 z m 5.4555999,0 c -0.602674,0 -1.09112,-0.488448 -1.09112,-1.09112 0,-0.602674 0.488446,-1.09112 1.09112,-1.09112 0.602674,0 1.09112,0.488446 1.09112,1.09112 0,0.602672 -0.488446,1.09112 -1.09112,1.09112 z"
     id="path1-8"
     style="stroke-width:0.0170488;fill:#fc7f7f;fill-opacity:1" /></svg>
